# xmcd
#
# Track frame offsets: 
#        182
#        11432
#        21457
#        39425
#        51587
#        64775
#        81102
#        93070
#        105555
#        123075
#        133375
#        145260
#        154800
#        165602
#
# Disc length: 2427 seconds
#
# Revision: 0
# Processed by: cddbd v1.4PL0 Copyright (c) Steve Scherf et al.
# Submitted via: ExactAudioCopy v0.90b3
#
DISCID=b709790e
DTITLE=John Lee Hooker - 28 Great Songs [CD 1)
DYEAR=1993
DGENRE=Blues
TTITLE0=Boom Boom
TTITLE1=Dimples
TTITLE2=House Rent Boogie
TTITLE3=Drug Store Woman
TTITLE4=I Love You Baby
TTITLE5=Mama, You Got a Daughter
TTITLE6=Frisco
TTITLE7=I'm so Excited
TTITLE8=Wednesday Evenin' Blues
TTITLE9=Old Time Shimmy
TTITLE10=Whiskey and Wimmen
TTITLE11=Onions
TTITLE12=Send me the Pillow you Dream on
TTITLE13=Process
EXTD=
EXTT0=
EXTT1=
EXTT2=
EXTT3=
EXTT4=
EXTT5=
EXTT6=
EXTT7=
EXTT8=
EXTT9=
EXTT10=
EXTT11=
EXTT12=
EXTT13=
PLAYORDER=
